<?xml version="1.0" encoding="utf-8"?>
<!-- Generator: Adobe Illustrator 18.1.1, SVG Export Plug-In . SVG Version: 6.00 Build 0)  -->
<svg version="1.1" id="Layer_1" xmlns="http://www.w3.org/2000/svg" xmlns:xlink="http://www.w3.org/1999/xlink" x="0px" y="0px"
	 viewBox="0 0 64 64" enable-background="new 0 0 64 64" xml:space="preserve">
<g>
	<g>
		<path fill="#FFFFFF" d="M54.9,57.3H53V28.9c0-0.3-0.3-0.6-0.6-0.6H11c-0.3,0-0.6,0.3-0.6,0.6v28.4H8.6V28.9c0-1.3,1.1-2.4,2.4-2.4
			h41.4c1.3,0,2.4,1.1,2.4,2.4V57.3z"/>
	</g>
	<g>
		<polygon fill="#FFFFFF" points="51,56.7 49.1,56.7 49.1,32.1 14.3,32.1 14.3,56.7 12.5,56.7 12.5,30.2 51,30.2 		"/>
	</g>
	<g>
		<path fill="#FFFFFF" d="M57.1,62.3H6.4c-1.7,0-3.8-1.5-4-1.7L2,60.4v-4.1h59.5v4.1l-0.4,0.3C60.9,60.8,58.8,62.3,57.1,62.3z
			 M3.8,59.5c0.7,0.5,1.8,1.1,2.5,1.1h50.7c0.8,0,1.9-0.6,2.5-1.1v-1.4H3.8V59.5z"/>
	</g>
	<g>
		<g>
			<g>
				<rect x="20.5" y="34.3" fill="#FFFFFF" width="4.8" height="1.8"/>
			</g>
			<g>
				<rect x="31.6" y="34.3" fill="#FFFFFF" width="9.8" height="1.8"/>
			</g>
			<g>
				<rect x="27.2" y="34.3" fill="#FFFFFF" width="2.3" height="1.8"/>
			</g>
			<g>
				<rect x="22.1" y="43.1" fill="#FFFFFF" width="3.9" height="1.8"/>
			</g>
			<g>
				<rect x="33.4" y="43.1" fill="#FFFFFF" width="8" height="1.8"/>
			</g>
			<g>
				<rect x="27.9" y="43.1" fill="#FFFFFF" width="3.4" height="1.8"/>
			</g>
			<g>
				<rect x="42.2" y="51.8" fill="#FFFFFF" width="4.2" height="1.8"/>
			</g>
			<g>
				<rect x="27.9" y="51.8" fill="#FFFFFF" width="12" height="1.8"/>
			</g>
			<g>
				<rect x="43.5" y="43.1" fill="#FFFFFF" width="2.9" height="1.8"/>
			</g>
			<g>
				<rect x="24.2" y="47.5" fill="#FFFFFF" width="1.8" height="1.8"/>
			</g>
			<g>
				<rect x="27.9" y="47.5" fill="#FFFFFF" width="12.2" height="1.8"/>
			</g>
			<g>
				<rect x="43.4" y="34.3" fill="#FFFFFF" width="2.3" height="1.8"/>
			</g>
			<g>
				<rect x="20.5" y="38.7" fill="#FFFFFF" width="19.4" height="1.8"/>
			</g>
			<g>
				<rect x="16.4" y="34.3" fill="#FFFFFF" width="2" height="1.8"/>
			</g>
			<g>
				<rect x="16.4" y="38.7" fill="#FFFFFF" width="2" height="1.8"/>
			</g>
			<g>
				<rect x="16.4" y="43.1" fill="#FFFFFF" width="2" height="1.8"/>
			</g>
			<g>
				<rect x="16.4" y="47.5" fill="#FFFFFF" width="2" height="1.8"/>
			</g>
			<g>
				<rect x="16.4" y="51.8" fill="#FFFFFF" width="2" height="1.8"/>
			</g>
		</g>
	</g>
</g>
<g>
	<g>
		<g>
			<g>
				<path fill="#FFFFFF" stroke="#292E33" stroke-width="4" d="M30.8,21.9"/>
			</g>
		</g>
		<g>
			<path fill="#FFFFFF" d="M30.8,24.6c-3,0-5.8-1.2-7.9-3.3c-4.3-4.4-4.3-11.6,0-16C25,3.2,27.8,2.1,30.8,2c3,0,5.8,1.2,7.9,3.3
				c2.1,2.1,3.3,5,3.3,8c0,3-1.2,5.9-3.3,8C36.6,23.4,33.8,24.6,30.8,24.6L30.8,24.6z M30.8,3.3c-2.7,0-5.1,1-7,2.9
				c-3.9,3.9-3.9,10.3,0,14.2c1.9,1.9,4.3,2.9,7,2.9V24l0-0.6c2.6,0,5.1-1,7-2.9c1.9-1.9,2.9-4.4,2.9-7.1c0-2.7-1-5.2-2.9-7.1
				C35.9,4.4,33.5,3.3,30.8,3.3z"/>
		</g>
		<g>
			<g>
				<path fill="#FFFFFF" d="M30.8,20.3c-1.8,0-3.6-0.7-4.9-2c-1.3-1.3-2-3.1-2-4.9c0-1.8,0.7-3.6,2-4.9c1.3-1.3,3-2.1,4.9-2.1
					c1.8,0,3.6,0.7,4.9,2c1.3,1.3,2,3.1,2,4.9c0,1.8-0.7,3.6-2,4.9C34.4,19.6,32.7,20.3,30.8,20.3L30.8,20.3z M30.8,7.6
					c-1.5,0-2.9,0.6-4,1.7c-1.1,1.1-1.6,2.5-1.6,4c0,1.5,0.6,2.9,1.6,4c1.1,1.1,2.5,1.7,3.9,1.7v0.6l0-0.6c1.5,0,2.9-0.6,4-1.7
					c1.1-1.1,1.6-2.5,1.6-4c0-1.5-0.6-2.9-1.6-4C33.7,8.2,32.3,7.6,30.8,7.6z"/>
			</g>
		</g>
	</g>
	<g>
		<path fill="#FFFFFF" d="M30.9,25c-7.1,0-13.9-4-19-11.3l-0.3-0.4l0.3-0.4C17,5.7,23.8,1.7,30.9,1.7c7.1,0,13.9,4,19,11.3l0.3,0.4
			L50,13.7C44.8,21,38.1,25,30.9,25z M13.2,13.3C18,20,24.3,23.7,30.9,23.7c6.6,0,12.9-3.7,17.7-10.4C43.8,6.6,37.5,2.9,30.9,2.9
			C24.3,2.9,18,6.6,13.2,13.3z"/>
	</g>
</g>
</svg>
