<?xml version="1.0" encoding="utf-8"?>
<!-- Generator: Adobe Illustrator 18.1.1, SVG Export Plug-In . SVG Version: 6.00 Build 0)  -->
<svg version="1.1" id="Layer_1" xmlns="http://www.w3.org/2000/svg" xmlns:xlink="http://www.w3.org/1999/xlink" x="0px" y="0px"
	 viewBox="0 0 64 64" enable-background="new 0 0 64 64" xml:space="preserve">
<g>
	<g>
		<path fill="#FFFFFF" d="M58.5,54.4H8.2c-1.3,0-2.6-1.3-2.6-2.7v-5.4h55.3v5.5C60.8,53.1,60,54.4,58.5,54.4z M7.4,48.1v3.6
			c0,0.4,0.5,0.9,0.9,0.9h50.3c0.3,0,0.5-0.4,0.5-0.9v-3.6L7.4,48.1L7.4,48.1z"/>
	</g>
	<g>
		<path fill="#FFFFFF" d="M25.1,61.3l-0.7-1.6c0.6-0.2,1.1-0.5,1.3-0.6l0.1,0c0.1,0,0.2-0.1,0.2-0.1s0.1-0.1,0.2-0.7
			c0.1-0.6,0.1-1.8,0.1-2.8c0-0.7,0-1.4,0-1.9l1.8,0.1c0,0.4,0,1,0,1.7c0,1.1,0,2.4-0.1,3.2c-0.2,1.2-0.5,1.6-1.3,2.1l-0.1,0
			C26.1,60.8,25.5,61.1,25.1,61.3z"/>
	</g>
	<g>
		<path fill="#FFFFFF" d="M41.2,61.3c-0.5-0.2-1.1-0.5-1.4-0.7l0,0c-0.9-0.5-1.1-0.8-1.3-2.1c-0.1-0.8-0.1-2-0.1-3.2
			c0-0.7,0-1.3,0-1.7l1.8-0.1c0,0.5,0,1.1,0,1.8c0,1,0,2.2,0.1,2.8c0.1,0.5,0.1,0.7,0.2,0.7c0,0,0.1,0.1,0.2,0.1l0,0
			c0.2,0.1,0.7,0.3,1.3,0.6L41.2,61.3z"/>
	</g>
	<g>
		<rect x="23.3" y="59.4" fill="#FFFFFF" width="19.8" height="1.8"/>
	</g>
	<g>
		<path fill="#FFFFFF" d="M60.8,48.1H5.6V16.2c0-1.3,1.1-2.3,2.3-2.3h5.3v1.8H7.9c-0.3,0-0.6,0.2-0.6,0.6v30.1H59V16.2
			c0-0.3-0.2-0.6-0.6-0.6h-5.2v-1.8h5.2c1.3,0,2.3,1.1,2.3,2.3V48.1z"/>
	</g>
	<g>
		<g>
			<polygon fill="#FFFFFF" points="17.8,43.9 9.7,43.9 9.7,18.1 13.2,18.1 13.2,19.9 11.5,19.9 11.5,42.1 17.8,42.1 			"/>
		</g>
		<g>
			<polygon fill="#FFFFFF" points="56.6,43.9 48.7,43.9 48.7,42.1 54.8,42.1 54.8,19.9 53.2,19.9 53.2,18.1 56.6,18.1 			"/>
		</g>
	</g>
	<g>
		<g>
			<rect x="48.9" y="13.8" fill="#FFFFFF" width="1.8" height="29.1"/>
		</g>
		<g>
			<polygon fill="#FFFFFF" points="17.6,43 15.8,43 15.8,3.3 40.5,3.3 40.5,5 17.6,5 			"/>
		</g>
		<g>
			<g>
				<path fill="#FFFFFF" d="M43.9,7.4l2.6,2.6h-2.6V7.4L43.9,7.4z M42.1,3.1v8.7h8.8L42.1,3.1L42.1,3.1z"/>
			</g>
		</g>
		<g>
			<rect x="27.6" y="13.9" fill="#FFFFFF" width="15.9" height="1.8"/>
		</g>
		<g>
			<rect x="27.6" y="18" fill="#FFFFFF" width="15.9" height="1.8"/>
		</g>
		<g>
			<polygon fill="#FFFFFF" points="22.9,18.9 20.6,17.5 21.6,15.9 22.5,16.6 24.5,14.1 25.8,15.2 			"/>
		</g>
		<g>
			<rect x="27.6" y="24.4" fill="#FFFFFF" width="15.9" height="1.8"/>
		</g>
		<g>
			<rect x="27.6" y="28.5" fill="#FFFFFF" width="15.9" height="1.8"/>
		</g>
		<g>
			<polygon fill="#FFFFFF" points="22.9,29.4 20.6,28 21.6,26.4 22.5,27 24.5,24.6 25.8,25.7 			"/>
		</g>
		<g>
			<rect x="27.6" y="34.8" fill="#FFFFFF" width="15.9" height="1.8"/>
		</g>
		<g>
			<rect x="27.6" y="39" fill="#FFFFFF" width="15.9" height="1.8"/>
		</g>
		<g>
			<polygon fill="#FFFFFF" points="22.9,39.9 20.6,38.4 21.6,36.9 22.5,37.5 24.5,35.1 25.8,36.2 			"/>
		</g>
	</g>
</g>
</svg>
