<?xml version="1.0" encoding="utf-8"?>
<!-- Generator: Adobe Illustrator 18.1.1, SVG Export Plug-In . SVG Version: 6.00 Build 0)  -->
<svg version="1.1" id="Layer_1" xmlns="http://www.w3.org/2000/svg" xmlns:xlink="http://www.w3.org/1999/xlink" x="0px" y="0px"
	 viewBox="0 0 64 64" enable-background="new 0 0 64 64" xml:space="preserve">
<g>
	<g>
		<g>
			<g>
				<path fill="#FFFFFF" d="M36.3,50.5c-0.5,0-0.9-0.1-1.4-0.3l-2.7-1.4c-0.1-0.1-0.2-0.1-0.3-0.1l-1.7-0.6l1.5-1
					c0.2-0.1,0.3-0.3,0.4-0.5l0.8-1.5c0.3-0.6,0.1-1.3-0.5-1.6c-0.3-0.2-0.6-0.2-0.9-0.1c-0.3,0.1-0.5,0.3-0.7,0.6l-0.7,1.5
					c-0.1,0.2-0.2,0.4-0.1,0.6l0.1,1.6l-4.3-2.2l1.4-0.9c0.2-0.1,0.3-0.3,0.4-0.5l2.1-4.3c0.3-0.6,0.1-1.3-0.5-1.6
					c-0.3-0.2-0.6-0.2-0.9-0.1c-0.3,0.1-0.5,0.3-0.7,0.6l-2.1,4.3c-0.1,0.2-0.2,0.4-0.1,0.6l0.1,1.6l-4.3-2.2l1.4-0.9
					c0.2-0.1,0.3-0.3,0.4-0.5l1.7-3.5c0.3-0.6,0.1-1.3-0.5-1.6c-0.3-0.2-0.6-0.2-0.9-0.1c-0.3,0.1-0.5,0.3-0.7,0.6L21.1,41
					c-0.1,0.2-0.2,0.4-0.1,0.6l0.1,1.6L16.5,41l1.3-0.9c0.2-0.1,0.3-0.3,0.4-0.5l0.8-1.5c0.3-0.6,0.1-1.3-0.5-1.6
					c-0.3-0.2-0.6-0.2-0.9-0.1c-0.3,0.1-0.5,0.3-0.7,0.6l-0.7,1.5c-0.1,0.2-0.2,0.4-0.1,0.6l0.1,1.8l-1.5-1
					c-0.6-0.4-1.2-0.9-1.6-1.5l1.5-1.1c0,0.1,0.1,0.1,0.1,0.1l0.6-1.2c0.4-0.7,1-1.3,1.8-1.5c0.8-0.3,1.6-0.2,2.3,0.2
					c0.9,0.5,1.5,1.3,1.6,2.2l0.2-0.4c0.4-0.7,1-1.3,1.8-1.5c0.8-0.3,1.6-0.2,2.3,0.2c0.9,0.4,1.4,1.2,1.6,2.1
					c0.3-0.3,0.7-0.6,1.2-0.7c0.8-0.3,1.6-0.2,2.3,0.2c1.5,0.8,2.1,2.6,1.4,4l-0.5,1c0.1,0,0.1-0.1,0.1-0.1c0.8-0.3,1.6-0.2,2.3,0.2
					c1.5,0.8,2.1,2.6,1.4,4l-0.8,1.5v0.1l2,1c0.3,0.2,0.6,0.2,0.9,0.1c0.3-0.1,0.6-0.3,0.7-0.6c0.2-0.4,0.2-0.9-0.1-1.3l-0.4-0.6
					l0.4-0.6c0.1-0.1,0.2-0.3,0.3-0.4l0.5-0.8l2.6,1.3c0.3,0.2,0.6,0.2,0.9,0.1c0.3-0.1,0.5-0.3,0.7-0.6c0.3-0.6,0.1-1.3-0.5-1.6
					l-2.6-1.3l1-2l4.9,2.5c0.3,0.2,0.6,0.2,0.9,0.1c0.3-0.1,0.5-0.3,0.7-0.6c0.3-0.6,0.1-1.3-0.5-1.6l-4.9-2.5l0.4-0.8
					c0.1-0.1,0.1-0.2,0.1-0.3l0.4-1.1l7,3.5c0.3,0.2,0.6,0.2,0.9,0.1c0.3-0.1,0.6-0.3,0.7-0.6c0.3-0.6,0.1-1.3-0.5-1.6l-10.3-5.2
					c-0.5-0.1-1.1-0.1-1.6-0.2c-2.1-0.5-3.9-1.5-5.1-3l-2.9,0.3v0.1c-0.3,1.2-1,2.3-2,2.9c-1,0.7-2.2,0.9-3.4,0.7l-1.2-0.3
					c-0.1,0-0.1-0.1-0.2-0.1l-0.9-0.2l0.2-0.9l1.6-7.7l5.7-1.2l2.8-0.6l1.1,0.3l-0.1-0.3l-4.6-0.5L27,21.6l-8.3,2.8l-0.6-1.8
					l8.7-2.9l2.9,0.3l5.9,0.6l1.4,4.5l-3.9-0.9l-2.4,0.5l-4.5,1L25,31.3l0.4,0.1c0.7,0.2,1.4,0,2-0.4c0.6-0.4,1-1,1.2-1.7l0.3-1.5
					l5.3-0.6l0.3,0.5c1,1.3,2.5,2.3,4.3,2.7c0.5,0.1,1,0.2,1.5,0.2h0.2L50.9,36c1.5,0.8,2.1,2.6,1.4,4c-0.4,0.7-1,1.3-1.8,1.5
					c-0.6,0.2-1.3,0.2-1.9,0c0.1,0.6-0.1,1.1-0.3,1.6c-0.4,0.7-1,1.3-1.8,1.5c-0.8,0.3-1.6,0.2-2.3-0.2l-0.1-0.1
					c0.1,0.6-0.1,1.1-0.3,1.6c-0.4,0.7-1,1.3-1.8,1.5c-0.8,0.3-1.6,0.2-2.3-0.2l-0.3-0.2c0.1,0.6-0.1,1.1-0.3,1.6
					c-0.4,0.7-1,1.3-1.8,1.5C36.9,50.5,36.6,50.5,36.3,50.5z"/>
			</g>
			<g>
				<g>
					<path fill="#FFFFFF" d="M50,37.7l-10.6-5.3c-0.1,0-0.1,0-0.1,0h-0.2c-0.2,0-0.3-0.1-0.4-0.1h-0.1l0,0l0,0
						c-0.2,0-0.3-0.1-0.4-0.1c-0.1,0-0.1,0-0.1,0c-0.1,0-0.3-0.1-0.4-0.1c-0.2-0.1-0.3-0.1-0.4-0.1L37.2,32C37.1,32,37.1,32,37,32
						c-0.1,0-0.1-0.1-0.2-0.1h-0.1c-0.1,0-0.1-0.1-0.2-0.1l-0.4-0.2c-0.1-0.1-0.2-0.1-0.3-0.1l-0.5-0.2c-0.1-0.1-0.2-0.1-0.4-0.2H35
						c-0.1-0.1-0.2-0.1-0.3-0.2L34.5,31c-0.7-0.5-1.4-1.2-1.9-1.6l-2.9,0.3v0.1c-0.3,1.2-1,2.3-2,2.9c-1,0.7-2.2,0.9-3.4,0.7
						l-1.2-0.3c-0.1,0-0.1-0.1-0.2-0.1l-0.9-0.2l0.2-0.9l1.6-7.7l0.7-0.2l7.9-1.6l9.3,2.1l6.2-2.1l0.6,1.8l-6.7,2.3l-9.4-2.1
						l-6.9,1.4l-1.2,5.6l0.4,0.1c0.7,0.2,1.4,0,2-0.4c0.6-0.4,1-1,1.2-1.7l0.3-1.5l5.2-0.6l0.3,0.4c0.3,0.4,1.3,1.4,1.9,1.8l0.1,0.1
						c0.1,0.1,0.1,0.1,0.2,0.1c0,0,0.1,0,0.1,0.1c0.1,0.1,0.2,0.1,0.2,0.1c0.1,0,0.1,0.1,0.1,0.1l0.4,0.2c0.1,0.1,0.2,0.1,0.2,0.1
						l0.5,0.2c0.1,0.1,0.1,0.1,0.2,0.1l0.2,0.1c0,0,0.1,0,0.1,0.1c0.2,0.1,0.3,0.1,0.4,0.1c0.1,0.1,0.3,0.1,0.4,0.1
						c0.2,0.1,0.3,0.1,0.4,0.1l0,0c0.1,0,0.2,0.1,0.4,0.1h0.1c0.1,0,0.2,0,0.3,0h0.2L49.8,36l2.4-0.8l0.6,1.8L50,37.7z"/>
				</g>
				<g>
					<path fill="#FFFFFF" d="M31.1,49.2L31.1,49.2c-0.5,0-0.9-0.1-1.4-0.3c-1.5-0.8-2.1-2.6-1.4-4.1l0.7-1.5c0.5-1,1.6-1.7,2.7-1.7
						c0.5,0,0.9,0.1,1.4,0.3c1.5,0.8,2.1,2.6,1.4,4l-0.8,1.5C33.3,48.5,32.3,49.2,31.1,49.2z M31.9,43.5c-0.5,0-0.8,0.3-1,0.7
						l-0.7,1.5c-0.3,0.6-0.1,1.3,0.5,1.6c0.6,0.3,1.3,0.1,1.5-0.5l0.8-1.5c0.3-0.6,0.1-1.3-0.5-1.6C32.2,43.6,32,43.5,31.9,43.5z"/>
				</g>
				<g>
					<path fill="#FFFFFF" d="M17,42L17,42c-0.5,0-0.9-0.1-1.4-0.3c-1.5-0.8-2.1-2.6-1.4-4.1l0.7-1.5c0.5-1.1,1.6-1.7,2.7-1.7
						c0.5,0,1,0.1,1.4,0.3c1.5,0.8,2.1,2.6,1.4,4l-0.7,1.5C19.2,41.4,18.2,42,17,42z M17.7,36.4c-0.5,0-0.8,0.3-1,0.7L16,38.5
						c-0.3,0.6-0.1,1.3,0.5,1.6c0.2,0.1,0.4,0.1,0.5,0.1l0,0c0.5,0,0.8-0.3,1-0.7l0.7-1.5c0.3-0.6,0.1-1.3-0.5-1.6
						C18.1,36.4,17.9,36.4,17.7,36.4z"/>
				</g>
				<g>
					<path fill="#FFFFFF" d="M26.5,46.8L26.5,46.8c-0.5,0-0.9-0.1-1.4-0.3c-1.5-0.8-2.1-2.6-1.4-4l2.1-4.3c0.5-1.1,1.6-1.7,2.7-1.7
						c0.5,0,0.9,0.1,1.4,0.3c1.5,0.8,2.1,2.6,1.4,4l-2.1,4.3C28.7,46.2,27.6,46.8,26.5,46.8z M28.6,38.3c-0.5,0-0.8,0.3-1,0.7
						l-2.1,4.3c-0.3,0.6-0.1,1.3,0.5,1.6c0.6,0.3,1.3,0.1,1.5-0.5l2.1-4.3c0.3-0.6,0.1-1.3-0.5-1.6C29,38.4,28.8,38.3,28.6,38.3z"/>
				</g>
				<g>
					<path fill="#FFFFFF" d="M21.9,44.5L21.9,44.5c-0.5,0-0.9-0.1-1.4-0.3c-1.5-0.8-2.1-2.6-1.4-4l1.7-3.5c0.5-1.1,1.6-1.7,2.7-1.7
						c0.5,0,0.9,0.1,1.4,0.3c1.5,0.8,2.1,2.6,1.4,4l-1.7,3.5C24,43.8,23,44.5,21.9,44.5z M23.6,36.8c-0.5,0-0.8,0.3-1,0.7l-1.7,3.5
						c-0.3,0.6-0.1,1.3,0.5,1.6c0.2,0.1,0.4,0.1,0.5,0.1l0,0c0.5,0,0.8-0.3,1-0.7l1.7-3.5c0.3-0.6,0.1-1.3-0.5-1.6
						C23.9,36.9,23.8,36.8,23.6,36.8z"/>
				</g>
			</g>
		</g>
	</g>
	<g>
		<g>
			<path fill="#FFFFFF" d="M53.3,40l-6.1-18.4l9.7-4L63,36L53.3,40z M49.5,22.6l4.9,14.9l6.3-2.6L55.8,20L49.5,22.6z"/>
		</g>
	</g>
	<g>
		<path fill="#FFFFFF" d="M13.1,41.6L2.7,37.8l6.8-20.7L20,20.9L13.1,41.6z M5,36.7l6.9,2.6l5.7-17.2l-6.9-2.6L5,36.7z"/>
	</g>
	<g>
		
			<rect x="8.8" y="34.5" transform="matrix(-0.9477 -0.3192 0.3192 -0.9477 8.0697 72.2423)" fill="#FFFFFF" width="2.3" height="1.9"/>
	</g>
	<g>
		
			<rect x="55.2" y="33.2" transform="matrix(-0.312 -0.9501 0.9501 -0.312 41.227 98.2296)" fill="#FFFFFF" width="1.9" height="2"/>
	</g>
</g>
</svg>
