<svg xmlns="http://www.w3.org/2000/svg" xmlns:xlink="http://www.w3.org/1999/xlink"  fill="rgb(255,255,255)" version="1.1" x="0px" y="0px" viewBox="0 0 64 80" style="enable-background:new 0 0 64 64;" xml:space="preserve"><path  fill="#52BA9B"  d="M9,54c-3.859,0-7,3.141-7,7c0,0.553,0.447,1,1,1h12c0.553,0,1-0.447,1-1C16,57.141,12.859,54,9,54z M4.101,60  C4.499,58.045,6.045,56.509,8,56.11V58h2v-1.89c1.955,0.4,3.501,1.935,3.899,3.89H4.101z"/><path fill="#52BA9B"  d="M61,45h-1.754c-0.055-0.139-0.112-0.277-0.174-0.416l1.241-1.241c0.391-0.391,0.391-1.023,0-1.414l-4.242-4.242  c-0.207-0.207-0.48-0.297-0.751-0.284C56.905,36.562,58,34.915,58,33V7c0-2.757-2.243-5-5-5H7C4.243,2,2,4.243,2,7v26  c0,2.757,2.243,5,5,5h13.05l-3.778,7H16h-1.5c-1.93,0-3.5,1.57-3.5,3.5s1.57,3.5,3.5,3.5H36c0,0.553,0.447,1,1,1h1.754  c0.055,0.139,0.112,0.277,0.174,0.416l-1.241,1.241c-0.391,0.391-0.391,1.023,0,1.414l4.242,4.242c0.391,0.391,1.023,0.391,1.414,0  l1.241-1.241c0.139,0.062,0.277,0.119,0.416,0.174V61c0,0.553,0.447,1,1,1h6c0.553,0,1-0.447,1-1v-1.754  c0.139-0.055,0.277-0.112,0.416-0.174l1.241,1.241c0.391,0.391,1.023,0.391,1.414,0l4.242-4.242c0.391-0.391,0.391-1.023,0-1.414  l-1.241-1.241c0.062-0.139,0.119-0.277,0.174-0.416H61c0.553,0,1-0.447,1-1v-6C62,45.447,61.553,45,61,45z M53,38  c0.579,0,1.126-0.118,1.644-0.3l-1.228,1.228c-0.139-0.062-0.277-0.119-0.416-0.174V38z M7,4h46c1.654,0,3,1.346,3,3v21H4V7  C4,5.346,5.346,4,7,4z M4,33v-3h52v3c0,1.654-1.346,3-3,3h-1h-6h-7.726H21.726H7C5.346,36,4,34.654,4,33z M40.753,38.862L40.166,38  h1.449L40.753,38.862z M45,38v0.754c-0.139,0.055-0.277,0.112-0.416,0.174L43.656,38H45z M14.5,50c-0.827,0-1.5-0.673-1.5-1.5  s0.673-1.5,1.5-1.5H16h0.868H36v3H14.5z M18.544,45l3.778-7h15.424l1.568,2.301l-1.627,1.627c-0.391,0.391-0.391,1.023,0,1.414  l1.241,1.241c-0.062,0.139-0.119,0.277-0.174,0.416H37H18.544z M60,51h-1.459c-0.437,0-0.822,0.283-0.954,0.699  c-0.152,0.483-0.357,0.975-0.61,1.459c-0.202,0.388-0.129,0.861,0.18,1.17l1.036,1.036l-2.828,2.828l-1.036-1.036  c-0.31-0.309-0.782-0.381-1.17-0.18c-0.484,0.253-0.976,0.458-1.459,0.61C51.283,57.719,51,58.104,51,58.541V60h-4v-1.459  c0-0.437-0.283-0.822-0.699-0.954c-0.483-0.152-0.975-0.357-1.459-0.61c-0.388-0.201-0.861-0.129-1.17,0.18l-1.036,1.036  l-2.828-2.828l1.036-1.036c0.309-0.309,0.382-0.782,0.18-1.17c-0.253-0.484-0.458-0.976-0.61-1.459  C40.281,51.283,39.896,51,39.459,51H38v-4h1.459c0.437,0,0.822-0.283,0.954-0.699c0.152-0.483,0.357-0.975,0.61-1.459  c0.202-0.388,0.129-0.861-0.18-1.17l-1.036-1.036l2.828-2.828l1.036,1.036c0.309,0.31,0.782,0.382,1.17,0.18  c0.484-0.253,0.976-0.458,1.459-0.61C46.717,40.281,47,39.896,47,39.459V38h4v1.459c0,0.437,0.283,0.822,0.699,0.954  c0.483,0.152,0.975,0.357,1.459,0.61c0.388,0.202,0.86,0.13,1.17-0.18l1.036-1.036l2.828,2.828l-1.036,1.036  c-0.309,0.309-0.382,0.782-0.18,1.17c0.253,0.484,0.458,0.976,0.61,1.459C57.719,46.717,58.104,47,58.541,47H60V51z"/><path fill="#52BA9B"  d="M49,43c-3.309,0-6,2.691-6,6s2.691,6,6,6s6-2.691,6-6S52.309,43,49,43z M49,53c-2.206,0-4-1.794-4-4s1.794-4,4-4  s4,1.794,4,4S51.206,53,49,53z"/><path  fill="#52BA9B"  d="M20.293,23.707l1.414-1.414L15.414,16l6.293-6.293l-1.414-1.414l-7,7c-0.391,0.391-0.391,1.023,0,1.414L20.293,23.707z"/><path fill="#52BA9B"   d="M36.707,23.707l7-7c0.391-0.391,0.391-1.023,0-1.414l-7-7l-1.414,1.414L41.586,16l-6.293,6.293L36.707,23.707z"/><rect x="18.438" y="14" transform="matrix(0.4472 -0.8944 0.8944 0.4472 2.338 33.783)" width="20.125" height="2"/><rect x="41" y="22" width="2" height="2"/><rect x="45" y="22" width="2" height="2"/><rect x="49" y="22" width="2" height="2"/></svg>