<?xml version="1.0" encoding="utf-8"?>
<!-- Generator: Adobe Illustrator 18.1.1, SVG Export Plug-In . SVG Version: 6.00 Build 0)  -->
<svg version="1.1" id="Layer_1" xmlns="http://www.w3.org/2000/svg" xmlns:xlink="http://www.w3.org/1999/xlink" x="0px" y="0px"
	 viewBox="-1535 637 128 128" enable-background="new -1535 637 128 128" xml:space="preserve">
<linearGradient id="SVGID_1_" gradientUnits="userSpaceOnUse" x1="-1529.4041" y1="700.0001" x2="-1410.5959" y2="700.0001">
	<stop  offset="0" style="stop-color:#ED485F"/>
	<stop  offset="1" style="stop-color:#F27C36"/>
</linearGradient>
<path fill="url(#SVGID_1_)" d="M-1433.5,750.3h-72.3c-6.2,0-11.5-5.3-11.5-11.5v-48l-6.2-0.3c-2.5,0-4.7-2.2-5.6-4.7
	c-0.6-2.5,0.6-5.3,2.8-6.5l50.8-28.1c3.4-1.9,7.8-1.9,11.2,0l50.8,28.1c2.2,1.2,3.4,4.1,2.8,6.5s-2.8,4.4-5.6,4.7l-6.2,0.3v48
	C-1422,745.3-1427.3,750.3-1433.5,750.3z M-1506.5,681.7c0.6,1.2,1.2,2.2,1.2,3.4v53.6l71.7-0.3l-0.3-53.3c0-1.2,0.3-2.2,1.2-3.4
	l-37.1-20.9L-1506.5,681.7z"/>
</svg>
