<?xml version="1.0" encoding="utf-8"?>
<!-- Generator: Adobe Illustrator 18.1.1, SVG Export Plug-In . SVG Version: 6.00 Build 0)  -->
<svg version="1.1" id="Layer_1" xmlns="http://www.w3.org/2000/svg" xmlns:xlink="http://www.w3.org/1999/xlink" x="0px" y="0px"
	 viewBox="0 0 64 64" enable-background="new 0 0 64 64" xml:space="preserve">
<g>
	<g>
		<path fill="#FFFFFF" d="M24.7,11l-1.1-1.3l6.7-5.8c1.5-1.2,3.8-1.2,5.2,0l6.7,5.8L41,11l-6.7-5.8c-0.8-0.7-2.1-0.7-2.9,0L24.7,11z
			"/>
	</g>
	<g>
		<g>
			<polygon fill="#FFFFFF" points="6.5,29.4 4.8,29.4 4.8,11.4 9.8,11.4 9.8,13.2 6.5,13.2 			"/>
		</g>
		<g>
			<polygon fill="#FFFFFF" points="61,29.8 59.2,29.8 59.2,13.2 56.2,13.2 56.2,11.4 61,11.4 			"/>
		</g>
		<g>
			<g>
				<path fill="#FFFFFF" d="M10.9,30.9H9.1V9.4h20.2c2.6,0,4.7,1.9,4.7,4.3h-1.8c0-1.4-1.3-2.5-2.9-2.5H10.9L10.9,30.9L10.9,30.9z"
					/>
			</g>
			<g>
				<path fill="#FFFFFF" d="M34,42.2h-1.8V13.6c0-2.3,2.1-4.3,4.7-4.3h20.2v20.4h-1.8V11.1H36.9c-1.6,0-2.9,1.1-2.9,2.5L34,42.2
					L34,42.2z"/>
			</g>
		</g>
		<g>
			<g>
				<rect x="13.8" y="14.4" fill="#FFFFFF" width="9" height="1.8"/>
			</g>
			<g>
				<rect x="13.8" y="18.8" fill="#FFFFFF" width="15.1" height="1.8"/>
			</g>
			<g>
				<rect x="13.8" y="23.1" fill="#FFFFFF" width="15.1" height="1.8"/>
			</g>
			<g>
				<rect x="13.8" y="27.5" fill="#FFFFFF" width="15.1" height="1.8"/>
			</g>
			<g>
				<rect x="13.8" y="31.8" fill="#FFFFFF" width="15.1" height="1.8"/>
			</g>
			<g>
				<rect x="18" y="36.2" fill="#FFFFFF" width="10.8" height="1.8"/>
			</g>
			<g>
				<rect x="36.7" y="18.8" fill="#FFFFFF" width="15.1" height="1.8"/>
			</g>
			<g>
				<rect x="36.7" y="23.1" fill="#FFFFFF" width="15.1" height="1.8"/>
			</g>
			<g>
				<rect x="36.7" y="27.5" fill="#FFFFFF" width="15.1" height="1.8"/>
			</g>
			<g>
				<rect x="36.7" y="31.8" fill="#FFFFFF" width="15.1" height="1.8"/>
			</g>
			<g>
				<rect x="36.7" y="36.2" fill="#FFFFFF" width="11.5" height="1.8"/>
			</g>
		</g>
	</g>
	<g>
		<g>
			<path fill="#FFFFFF" d="M61,59.5H4.7V26h1.2l0.3,0.2l11.6,9.9c0.6,0.5,1.3,1.1,2,1.8l4.5,3.9h17.1l4.5-3.9c0.8-0.6,1.5-1.3,2-1.8
				L59.7,26H61L61,59.5L61,59.5z M6.5,57.7h52.8V28.8l-10.2,8.7c-0.6,0.5-1.3,1.1-2,1.8l-5,4.3H23.7l-5-4.3c-0.8-0.6-1.5-1.3-2-1.8
				L6.5,28.8V57.7z"/>
		</g>
		<g>
			<g>
				<path fill="#FFFFFF" d="M6.7,58.8l-1.1-1.3l6.3-5.4l4.8-4.1c0.3-0.3,0.9-0.7,1.3-1.1l5.5-4.8l1.1,1.3L19,48.2
					c-0.5,0.4-1,0.8-1.3,1.1L13,53.5L6.7,58.8z"/>
			</g>
			<g>
				<path fill="#FFFFFF" d="M59.5,59.3L47.9,49.2c-0.3-0.3-0.8-0.7-1.2-1l-5.6-4.8l1.1-1.3l5.6,4.8c0.4,0.4,0.9,0.8,1.2,1l11.6,10.1
					L59.5,59.3z"/>
			</g>
		</g>
	</g>
</g>
</svg>
